<svg width="26" height="25" viewBox="0 0 26 25" fill="none" xmlns="http://www.w3.org/2000/svg">
<circle cx="13" cy="12.5" r="12.5" fill="#2D2D2D"/>
<path d="M13.0507 8.37806C12.4615 8.37806 11.5495 7.71068 10.589 7.7348C9.32189 7.75088 8.15968 8.46651 7.50594 9.60026C6.19038 11.8758 7.16696 15.2369 8.45023 17.0862C9.07977 17.9868 9.82229 19 10.8069 18.9678C11.7512 18.9276 12.1064 18.3567 13.2524 18.3567C14.3904 18.3567 14.7133 18.9678 15.7141 18.9437C16.731 18.9276 17.3767 18.027 17.9981 17.1184C18.7164 16.0731 19.0151 15.06 19.0312 15.0037C19.007 14.9956 17.0538 14.2478 17.0296 11.9964C17.0135 10.1149 18.5712 9.2143 18.6438 9.1741C17.756 7.87953 16.392 7.7348 15.9158 7.70263C14.6729 7.60615 13.6318 8.37806 13.0507 8.37806ZM15.1491 6.48043C15.6737 5.85325 16.0208 4.9768 15.9239 4.1084C15.1733 4.14056 14.2694 4.60693 13.7286 5.23411C13.2444 5.78893 12.8247 6.68145 12.9377 7.53378C13.769 7.5981 14.6245 7.10762 15.1491 6.48043Z" fill="white"/>
</svg>
