<svg width="26" height="25" viewBox="0 0 26 25" fill="none" xmlns="http://www.w3.org/2000/svg">
<path d="M25.5 12.5C25.5 5.59644 19.9036 0 13 0C6.09644 0 0.5 5.59644 0.5 12.5C0.5 18.7391 5.07106 23.9104 11.0469 24.8482V16.1133H7.87306V12.5H11.0469V9.7461C11.0469 6.61328 12.913 4.88282 15.7683 4.88282C17.1359 4.88282 18.5664 5.12695 18.5664 5.12695V8.20313H16.9902C15.4374 8.20313 14.9531 9.16668 14.9531 10.1552V12.5H18.4199L17.8657 16.1133H14.9531V24.8482C20.9289 23.9104 25.5 18.7391 25.5 12.5Z" fill="#1877F2"/>
<path d="M17.8657 16.1133L18.4199 12.5H14.9531V10.1552C14.9531 9.16668 15.4374 8.20312 16.9902 8.20312H18.5664V5.12695C18.5664 5.12695 17.1359 4.88281 15.7683 4.88281C12.913 4.88281 11.0469 6.61327 11.0469 9.7461V12.5H7.87305V16.1133H11.0469V24.8481C11.693 24.9494 12.346 25.0002 13 25C13.6645 25 14.3167 24.948 14.9531 24.8481V16.1133H17.8657Z" fill="white"/>
</svg>
