<svg width="29" height="20" viewBox="0 0 29 20" fill="none" xmlns="http://www.w3.org/2000/svg">
<rect x="0.264286" y="0.264286" width="28.4714" height="19.4714" rx="2.73571" fill="white" stroke="#D5D5D5" stroke-width="0.528571"/>
<path fill-rule="evenodd" clip-rule="evenodd" d="M18.3746 15.6717C21.4972 15.6717 24.0286 13.0962 24.0286 9.91924C24.0286 6.74222 21.4972 4.16675 18.3746 4.16675C16.9751 4.16675 15.6944 4.68406 14.7071 5.54099C13.7198 4.68413 12.4391 4.16687 11.0397 4.16687C7.91712 4.16687 5.38574 6.74234 5.38574 9.91935C5.38574 13.0964 7.91712 15.6718 11.0397 15.6718C12.4392 15.6718 13.7199 15.1545 14.7072 14.2976C15.6945 15.1545 16.9752 15.6717 18.3746 15.6717Z" fill="#ED0006"/>
<path fill-rule="evenodd" clip-rule="evenodd" d="M14.7072 14.2975C15.9228 13.2424 16.6937 11.6724 16.6937 9.91924C16.6937 8.16605 15.9228 6.59605 14.7072 5.54094C15.6945 4.68404 16.9752 4.16675 18.3746 4.16675C21.4972 4.16675 24.0286 6.74222 24.0286 9.91924C24.0286 13.0962 21.4972 15.6717 18.3746 15.6717C16.9752 15.6717 15.6945 15.1544 14.7072 14.2975Z" fill="#F9A000"/>
<path fill-rule="evenodd" clip-rule="evenodd" d="M14.7072 14.2973C15.9229 13.2422 16.6937 11.6722 16.6937 9.91904C16.6937 8.16587 15.9229 6.59588 14.7072 5.54077C13.4915 6.59588 12.7207 8.16587 12.7207 9.91904C12.7207 11.6722 13.4915 13.2422 14.7072 14.2973Z" fill="#FF5E00"/>
</svg>
