<svg width="29" height="20" viewBox="0 0 29 20" fill="none" xmlns="http://www.w3.org/2000/svg">
<rect x="0.5" y="0.5" width="28" height="19" rx="2.5" fill="white" stroke="#D5D5D5"/>
<path fill-rule="evenodd" clip-rule="evenodd" d="M8.20281 12.7009H6.91387C6.82567 12.7009 6.75065 12.7654 6.7369 12.8529L6.21559 16.1772C6.20522 16.2428 6.25573 16.3019 6.32189 16.3019H6.93724C7.02544 16.3019 7.10046 16.2374 7.11421 16.1497L7.25482 15.2531C7.26838 15.1653 7.34358 15.1009 7.4316 15.1009H7.83963C8.6887 15.1009 9.1787 14.6877 9.30673 13.8688C9.36438 13.5106 9.30917 13.2291 9.14232 13.0319C8.95917 12.8155 8.63419 12.7009 8.20281 12.7009ZM8.35152 13.9151C8.28104 14.3802 7.92765 14.3802 7.58596 14.3802H7.39145L7.52791 13.5115C7.53601 13.459 7.58124 13.4203 7.63402 13.4203H7.72316C7.95592 13.4203 8.17551 13.4203 8.28898 13.5537C8.35658 13.6334 8.37733 13.7516 8.35152 13.9151ZM12.0558 13.9001H11.4385C11.3859 13.9001 11.3405 13.9388 11.3324 13.9914L11.3051 14.165L11.2619 14.1021C11.1283 13.907 10.8303 13.8418 10.5329 13.8418C9.8508 13.8418 9.26827 14.3614 9.1548 15.0902C9.09584 15.4537 9.17965 15.8014 9.3847 16.0438C9.57283 16.2667 9.84199 16.3596 10.1622 16.3596C10.7117 16.3596 11.0166 16.0042 11.0166 16.0042L10.989 16.1767C10.9786 16.2427 11.0291 16.3018 11.0949 16.3018H11.6509C11.7393 16.3018 11.8139 16.2373 11.8279 16.1496L12.1615 14.0249C12.172 13.9595 12.1217 13.9001 12.0558 13.9001ZM11.1954 15.1084C11.1358 15.463 10.8559 15.7011 10.499 15.7011C10.3198 15.7011 10.1765 15.6433 10.0845 15.5337C9.99331 15.425 9.9586 15.2701 9.98764 15.0976C10.0433 14.7459 10.3279 14.5001 10.6794 14.5001C10.8546 14.5001 10.9971 14.5587 11.091 14.6692C11.185 14.7808 11.2223 14.9366 11.1954 15.1084ZM14.7228 13.9001H15.3431C15.43 13.9001 15.4807 13.998 15.4313 14.0697L13.3683 17.0646C13.3349 17.1131 13.2799 17.142 13.2211 17.142H12.6016C12.5144 17.142 12.4634 17.0432 12.5139 16.9714L13.1563 16.0594L12.4731 14.0429C12.4495 13.9729 12.5009 13.9001 12.5751 13.9001H13.1845C13.2637 13.9001 13.3336 13.9523 13.3565 14.0286L13.719 15.2465L14.5745 13.9791C14.608 13.9296 14.6637 13.9001 14.7228 13.9001Z" fill="#253B80"/>
<path fill-rule="evenodd" clip-rule="evenodd" d="M21.4479 16.1771L21.9769 12.7921C21.985 12.7395 22.0303 12.7009 22.0829 12.7007H22.6784C22.7441 12.7007 22.7946 12.76 22.7843 12.8256L22.2626 16.1496C22.249 16.2374 22.174 16.3018 22.0856 16.3018H21.5538C21.488 16.3018 21.4375 16.2427 21.4479 16.1771ZM17.3967 12.7009H16.1075C16.0195 12.7009 15.9445 12.7653 15.9307 12.8529L15.4094 16.1771C15.3991 16.2427 15.4496 16.3018 15.5154 16.3018H16.1769C16.2384 16.3018 16.291 16.2567 16.3005 16.1953L16.4485 15.2531C16.4621 15.1653 16.5373 15.1009 16.6253 15.1009H17.0331C17.8823 15.1009 18.3722 14.6876 18.5004 13.8688C18.5582 13.5105 18.5026 13.229 18.3359 13.0318C18.1528 12.8154 17.8281 12.7009 17.3967 12.7009ZM17.5454 13.915C17.4751 14.3802 17.1217 14.3802 16.7798 14.3802H16.5855L16.7222 13.5114C16.7303 13.4589 16.7751 13.4202 16.828 13.4202H16.9172C17.1498 13.4202 17.3696 13.4202 17.483 13.5537C17.5506 13.6333 17.5712 13.7516 17.5454 13.915ZM21.2493 13.9001H20.6325C20.5795 13.9001 20.5345 13.9388 20.5265 13.9913L20.4992 14.1649L20.4559 14.102C20.3223 13.9069 20.0245 13.8417 19.7271 13.8417C19.045 13.8417 18.4626 14.3613 18.3491 15.0902C18.2903 15.4537 18.3738 15.8013 18.5789 16.0438C18.7673 16.2667 19.0361 16.3596 19.3563 16.3596C19.9059 16.3596 20.2106 16.0041 20.2106 16.0041L20.1832 16.1767C20.1728 16.2426 20.2233 16.3017 20.2895 16.3017H20.8452C20.9332 16.3017 21.0082 16.2373 21.022 16.1496L21.3558 14.0248C21.366 13.9595 21.3155 13.9001 21.2493 13.9001ZM20.389 15.1083C20.3298 15.463 20.0495 15.701 19.6926 15.701C19.5137 15.701 19.3701 15.6432 19.2781 15.5337C19.1869 15.4249 19.1526 15.27 19.1813 15.0975C19.2372 14.7459 19.5214 14.5001 19.8729 14.5001C20.0482 14.5001 20.1907 14.5586 20.2846 14.6691C20.379 14.7808 20.4163 14.9366 20.389 15.1083Z" fill="#179BD7"/>
<path d="M12.9729 11.5115L13.1314 10.4992L12.7784 10.491H11.0929L12.2642 3.02112C12.2678 2.99857 12.2797 2.97754 12.2969 2.96261C12.3142 2.94768 12.3364 2.93945 12.3594 2.93945H15.2014C16.1449 2.93945 16.796 3.13692 17.136 3.52666C17.2953 3.70951 17.3969 3.90057 17.446 4.11083C17.4974 4.33146 17.4984 4.59505 17.4481 4.91655L17.4444 4.94001V5.146L17.6038 5.23682C17.7381 5.30842 17.8446 5.3904 17.9264 5.48426C18.0629 5.64058 18.151 5.83927 18.1883 6.07482C18.2267 6.31708 18.214 6.60536 18.151 6.93173C18.0783 7.30716 17.9607 7.63413 17.802 7.90168C17.6559 8.14821 17.4699 8.35264 17.249 8.51115C17.0381 8.66168 16.7875 8.77597 16.5043 8.84913C16.2297 8.92097 15.9168 8.95729 15.5735 8.95729H15.3523C15.1942 8.95729 15.0405 9.01457 14.9199 9.11729C14.7991 9.22212 14.719 9.36527 14.6945 9.52194L14.6778 9.61308L14.3979 11.3972L14.3851 11.4627C14.3818 11.4835 14.3761 11.4939 14.3676 11.5009C14.36 11.5072 14.3491 11.5115 14.3385 11.5115H12.9729Z" fill="#253B80"/>
<path d="M17.7548 4.96411C17.7463 5.01866 17.7366 5.07442 17.7257 5.13171C17.3509 7.06705 16.0687 7.73564 14.431 7.73564H13.5972C13.3969 7.73564 13.2282 7.8819 13.1969 8.08058L12.77 10.8037L12.6491 11.5755C12.6288 11.706 12.7288 11.8236 12.8597 11.8236H14.3386C14.5138 11.8236 14.6625 11.6956 14.69 11.5219L14.7046 11.4463L14.9831 9.66912L15.001 9.57167C15.0282 9.39737 15.1772 9.26938 15.3524 9.26938H15.5735C17.0064 9.26938 18.1281 8.68429 18.4559 6.99118C18.5929 6.28389 18.522 5.69333 18.1596 5.27798C18.0499 5.15273 17.9139 5.04882 17.7548 4.96411Z" fill="#179BD7"/>
<path d="M17.3625 4.80693C17.3052 4.79017 17.2461 4.77493 17.1855 4.76122C17.1246 4.74782 17.0622 4.73593 16.998 4.72557C16.7731 4.689 16.5268 4.67163 16.2629 4.67163H14.0353C13.9805 4.67163 13.9284 4.68412 13.8818 4.70667C13.779 4.75634 13.7027 4.85417 13.6842 4.97392L13.2103 7.99259L13.1967 8.08065C13.2279 7.88196 13.3966 7.73569 13.5969 7.73569H14.4307C16.0684 7.73569 17.3507 7.06681 17.7255 5.13177C17.7366 5.07448 17.746 5.01872 17.7545 4.96418C17.6597 4.91359 17.557 4.87032 17.4464 4.83344C17.4192 4.8243 17.391 4.81546 17.3625 4.80693Z" fill="#222D65"/>
<path d="M13.6843 4.97381C13.7028 4.85404 13.7792 4.75623 13.8818 4.70686C13.9288 4.6843 13.9806 4.67181 14.0354 4.67181H16.263C16.527 4.67181 16.7733 4.68918 16.998 4.72575C17.0623 4.73611 17.1248 4.748 17.1856 4.7614C17.2463 4.77512 17.3053 4.79036 17.3626 4.80711C17.391 4.81565 17.4192 4.82448 17.4468 4.83332C17.5574 4.87019 17.6601 4.91377 17.7549 4.96405C17.8665 4.24885 17.754 3.76189 17.3696 3.32094C16.9457 2.83551 16.1806 2.62769 15.2017 2.62769H12.3596C12.1596 2.62769 11.9891 2.77395 11.9581 2.97294L10.7744 10.5196C10.751 10.6689 10.8655 10.8036 11.0152 10.8036H12.7699L13.2104 7.99246L13.6843 4.97381Z" fill="#253B80"/>
</svg>
