<svg width="29" height="20" viewBox="0 0 29 20" fill="none" xmlns="http://www.w3.org/2000/svg">
<rect x="0.5" y="0.5" width="28" height="19" rx="2.5" fill="white" stroke="#D5D5D5"/>
<path fill-rule="evenodd" clip-rule="evenodd" d="M8.80373 13.5485H7.04689L5.72948 8.49356C5.66695 8.26104 5.53418 8.05547 5.33888 7.95859C4.85149 7.71511 4.31441 7.52134 3.72852 7.42361V7.229H6.55864C6.94924 7.229 7.24219 7.52134 7.29102 7.86086L7.97456 11.5071L9.73055 7.229H11.4386L8.80373 13.5485ZM12.4151 13.5485H10.7559L12.1221 7.229H13.7813L12.4151 13.5485ZM15.9279 8.97968C15.9767 8.63932 16.2696 8.4447 16.6114 8.4447C17.1485 8.39584 17.7335 8.49357 18.2218 8.7362L18.5147 7.37559C18.0265 7.18098 17.4894 7.08325 17.002 7.08325C15.3917 7.08325 14.2199 7.95859 14.2199 9.17345C14.2199 10.0977 15.0499 10.5829 15.6358 10.8753C16.2696 11.1668 16.5138 11.3614 16.4649 11.6529C16.4649 12.0901 15.9767 12.2847 15.4893 12.2847C14.9034 12.2847 14.3175 12.139 13.7813 11.8955L13.4883 13.257C14.0742 13.4996 14.7081 13.5973 15.294 13.5973C17.0997 13.6453 18.2218 12.7709 18.2218 11.4583C18.2218 9.80531 15.9279 9.70843 15.9279 8.97968ZM24.0285 13.5485L22.7111 7.229H21.296C21.0031 7.229 20.7101 7.42361 20.6125 7.71511L18.173 13.5485H19.881L20.2219 12.6251H22.3205L22.5158 13.5485H24.0285ZM21.5402 8.93082L22.0276 11.3125H20.6613L21.5402 8.93082Z" fill="#172B85"/>
</svg>
